<?xml version="1.0" standalone="no"?>
<!DOCTYPE svg PUBLIC "-//W3C//DTD SVG 20010904//EN"
 "http://www.w3.org/TR/2001/REC-SVG-20010904/DTD/svg10.dtd">
<svg version="1.0" xmlns="http://www.w3.org/2000/svg"
 width="462.000000pt" height="115.000000pt" viewBox="0 0 462.000000 115.000000"
 preserveAspectRatio="xMidYMid meet">

<g transform="translate(0.000000,115.000000) scale(0.100000,-0.100000)"
fill="#000000" stroke="none">
<path d="M277 842 l-37 -38 110 -109 c61 -60 110 -114 110 -120 0 -5 -50 -59
-110 -120 l-110 -111 40 -39 40 -39 153 152 152 152 -155 155 -156 155 -37
-38z"/>
<path d="M1370 570 l0 -270 60 0 60 0 -2 268 -3 267 -57 3 -58 3 0 -271z"/>
<path d="M3330 739 l0 -101 -30 26 c-38 32 -88 41 -135 26 -87 -29 -131 -105
-123 -213 6 -76 26 -117 75 -154 49 -37 135 -40 182 -5 30 22 31 22 31 2 0
-17 6 -20 50 -20 l50 0 0 270 0 270 -50 0 -50 0 0 -101z m-37 -136 c16 -10 37
-72 37 -108 0 -102 -76 -158 -142 -105 -53 41 -55 163 -2 208 22 19 34 22 63
17 20 -4 40 -9 44 -12z"/>
<path d="M2084 691 c-45 -11 -91 -41 -103 -68 -21 -45 -15 -53 39 -53 44 0 52
3 60 24 11 29 40 40 86 32 25 -5 35 -13 40 -32 10 -38 -13 -54 -98 -69 -98
-17 -133 -36 -148 -79 -37 -112 85 -192 209 -136 52 24 51 24 51 5 0 -11 13
-15 53 -15 l52 0 -3 127 c-3 166 -9 207 -32 228 -42 38 -131 53 -206 36z m126
-241 c0 -53 -34 -90 -84 -90 -40 0 -66 21 -66 54 0 32 16 43 85 59 33 8 61 15
63 16 1 1 2 -17 2 -39z"/>
<path d="M2576 690 c-16 -5 -39 -19 -52 -31 l-24 -22 0 26 c0 26 -2 27 -50 27
l-50 0 0 -195 0 -195 54 0 54 0 4 141 c3 161 9 172 83 167 57 -4 65 -26 65
-180 l0 -128 50 0 50 0 0 153 c0 101 -4 160 -13 176 -27 54 -105 82 -171 61z"/>
<path d="M3631 685 c-85 -26 -132 -96 -132 -192 0 -154 147 -249 281 -181 40
20 90 76 90 99 0 5 -18 9 -41 9 -29 0 -50 -7 -71 -25 -55 -47 -138 -21 -154
48 l-6 27 141 0 141 0 0 28 c0 85 -60 170 -135 191 -49 13 -59 13 -114 -4z
m122 -96 c34 -42 24 -49 -67 -49 -80 0 -84 1 -79 20 3 11 17 30 32 41 32 26
88 20 114 -12z"/>
<path d="M1608 496 l67 -196 60 0 60 0 63 188 c34 103 62 191 62 195 0 13
-100 8 -105 -5 -2 -7 -21 -67 -41 -133 l-37 -120 -42 130 -41 130 -56 3 -57 3
67 -195z"/>
<path d="M3910 686 c0 -4 115 -343 125 -368 6 -14 19 -18 65 -18 l57 0 61 178
c33 97 64 185 67 195 6 15 1 17 -44 17 -60 0 -57 5 -102 -147 -18 -62 -36
-109 -40 -105 -5 6 -42 121 -75 235 -4 13 -17 17 -60 17 -30 0 -54 -2 -54 -4z"/>
<path d="M2850 355 l0 -55 60 0 60 0 0 55 0 55 -60 0 -60 0 0 -55z"/>
<path d="M640 305 l0 -55 255 0 255 0 0 55 0 55 -255 0 -255 0 0 -55z"/>
</g>
</svg>
